# xmcd
#
# Track frame offsets:
#	150
#	15394
#	29723
#	51944
#	69409
#	82933
#	98126
#	113980
#	128659
#	146513
#	164303
#	182904
#	200289
#
# Disc length: 2893 seconds
#
# Revision: 1
# Processed by: cddbd v1.5.1PL0 Copyright (c) Steve Scherf et al.
# Submitted via: EasyCDDAExtractor 6.0.0.1
#
DISCID=ab0b4b0d
DTITLE=Johnny Walker - Walk On
DYEAR=1999
DGENRE=
TTITLE0=STARY DOM 
TTITLE1=OCZEKIWANIE
TTITLE2=BRON CZLOWIEKA PRACY PANIE NASZ 
TTITLE3=CIAGLE MÓWIA PRACUJ 
TTITLE4=JESTEM TYM KOGO CHCESZ 
TTITLE5=KTOS OBRABOWAL MIEJSKI BANK
TTITLE6=LADY V
TTITLE7=POZWÓL ODEJSC
TTITLE8=PRÓCZ GITARY NIE MAM NIC 
TTITLE9=BO TY DOBRZE WIESZ 
TTITLE10=WAKACYJNA DZIEWCZYNA 
TTITLE11=ZYJE SIE TYLKO RAZ 
TTITLE12=KOLEJNY SZARY DZIEN 
EXTD=
EXTT0=
EXTT1=
EXTT2=
EXTT3=
EXTT4=
EXTT5=
EXTT6=
EXTT7=
EXTT8=
EXTT9=
EXTT10=
EXTT11=
EXTT12=
PLAYORDER=
